# xmcd
#
# Track frame offsets: 
#        150
#        18435
#        34409
#        50882
#        67565
#        80800
#        100911
#        115005
#        135147
#        148267
#        166194
#        188713
#        199375
#        219527
#        237150
#        253505
#        279945
#        290909
#        308067
#
# Disc length: 4305 seconds
#
# Revision: 0
# Processed by: cddbd v1.5.2PL0 Copyright (c) Steve Scherf et al.
# Submitted via: ExactAudioCopy v1.1
#
DISCID=1610cf13
DTITLE=Various Artist - 1000 Klassiekers Radio 2 Vol. 10 - CD 1
DYEAR=2018
DGENRE=Easy Listening
TTITLE0=Wham! - I'm Your Man
TTITLE1=Dana Winner - Ik Hou Van Jou
TTITLE2=Mark Ronson Feat. Amy Winehouse - Valerie
TTITLE3=Urbanus - De Wereld Is Om Zeep
TTITLE4=Louis Prima - Buona Sera
TTITLE5=Janis Joplin - Me And Bobby McGee
TTITLE6=John Denver - Take Me Home, Country Roads
TTITLE7=Angie Stone - Wish I Didn't Miss You
TTITLE8=The Romantics - What I Like About You
TTITLE9=Cyndi Lauper - Time After Time
TTITLE10=Philip Bailey With Phil Collins - Easy Lover
TTITLE11=The Crystals - Da Doo Ron Ron
TTITLE12=Alice Cooper - Poison
TTITLE13=3T - I Need You
TTITLE14=Harry Belafonte - Matilda
TTITLE15=Falco - Jeanny
TTITLE16=Roy Orbison - Only The Lonely
TTITLE17=Survivor - Eye Of The Tiger
TTITLE18=Modern Talking - You're My Heart, You're My Soul
EXTD=
EXTT0=
EXTT1=
EXTT2=
EXTT3=
EXTT4=
EXTT5=
EXTT6=
EXTT7=
EXTT8=
EXTT9=
EXTT10=
EXTT11=
EXTT12=
EXTT13=
EXTT14=
EXTT15=
EXTT16=
EXTT17=
EXTT18=
PLAYORDER=
